<svg width="101" height="101" xmlns="http://www.w3.org/2000/svg" xmlns:xlink="http://www.w3.org/1999/xlink" overflow="hidden"><defs><clipPath id="clip0"><rect x="296" y="6" width="101" height="101"/></clipPath><clipPath id="clip1"><rect x="296" y="6" width="100" height="100"/></clipPath><clipPath id="clip2"><rect x="296" y="6" width="100" height="101"/></clipPath><clipPath id="clip3"><rect x="296" y="6" width="100" height="101"/></clipPath></defs><g clip-path="url(#clip0)" transform="translate(-296 -6)"><g clip-path="url(#clip1)"><g clip-path="url(#clip2)"><g clip-path="url(#clip3)"><path d="M329.333 70.5833C329.333 75.1857 325.602 78.9167 321 78.9167 316.398 78.9167 312.667 75.1857 312.667 70.5833 312.667 65.981 316.398 62.25 321 62.25 325.602 62.25 329.333 65.981 329.333 70.5833Z" fill="#FFFFFF"/><path d="M379.333 70.5833C379.333 75.1857 375.602 78.9167 371 78.9167 366.398 78.9167 362.667 75.1857 362.667 70.5833 362.667 65.981 366.398 62.25 371 62.25 375.602 62.25 379.333 65.981 379.333 70.5833Z" fill="#FFFFFF"/><path d="M336.625 49.75 336.625 37.25 350.896 37.25C352.042 37.25 353.083 37.6667 353.812 38.5L365.062 49.75 336.625 49.75ZM332.458 49.75 306.104 49.75 317.354 38.5C318.188 37.6667 319.229 37.25 320.271 37.25L332.458 37.25 332.458 49.75ZM381.417 49.75 372.771 49.75C371.625 49.75 370.583 49.3333 369.854 48.5L356.729 35.4792C355.167 33.9167 353.083 33.0833 350.792 33.0833L320.271 33.0833C318.083 33.0833 315.896 33.9167 314.333 35.4792L301.417 48.5C300.583 49.3333 300.167 50.375 300.167 51.5208L300.167 62.25C300.167 66.8333 303.917 70.5833 308.5 70.5833L309.542 70.5833C309.542 64.2292 314.646 59.125 321 59.125 327.354 59.125 332.458 64.2292 332.458 70.5833L359.542 70.5833C359.542 64.2292 364.646 59.125 371 59.125 377.354 59.125 382.458 64.2292 382.458 70.5833L387.667 70.5833C389.958 70.5833 391.833 68.7083 391.833 66.4167L391.833 60.1667C391.833 54.4375 387.146 49.75 381.417 49.75Z" fill="#FFFFFF"/></g></g></g></g></svg>