<svg viewBox="0 0 96 96" xmlns="http://www.w3.org/2000/svg" xmlns:xlink="http://www.w3.org/1999/xlink" id="Icons_Link" overflow="hidden"><path d="M74.2 74.2C70.7 77.7 65 77.7 61.5 74.2L53 65.7C50.3 63 49.6 58.9 51.3 55.5L58.7 62.9C59.9 64 61.7 64 62.9 62.8 64 61.7 64.1 59.8 63 58.6L55.6 51.2C59 49.6 63.1 50.3 65.8 53L74.3 61.5C77.7 65 77.7 70.6 74.2 74.2ZM30.3 43 21.8 34.5C18.3 31 18.3 25.3 21.8 21.8 25.3 18.3 31 18.3 34.5 21.8L43 30.3C45.7 33 46.4 37.1 44.8 40.5L38.8 34.5C37.6 33.4 35.8 33.4 34.6 34.6 33.5 35.7 33.4 37.6 34.5 38.8L40.5 44.8C37.1 46.4 33 45.7 30.3 43ZM78.4 57.2 69.9 48.7C64.9 43.6 56.9 42.8 51 46.8L49.2 45C53.1 39.1 52.3 31.2 47.3 26.1L38.8 17.6C32.9 12.2 23.7 12.4 18 18 12.3 23.7 12.1 32.8 17.6 38.8L26.1 47.3C31.1 52.4 39.1 53.2 45 49.2L46.8 51C42.9 56.9 43.7 64.8 48.7 69.9L57.2 78.4C63.1 83.9 72.3 83.7 78 78 83.7 72.3 83.9 63.1 78.4 57.2L78.4 57.2Z" fill="#FFFFFF"/></svg>