<svg width="104" height="104" xmlns="http://www.w3.org/2000/svg" xmlns:xlink="http://www.w3.org/1999/xlink" overflow="hidden"><defs><clipPath id="clip0"><rect x="296" y="30" width="104" height="104"/></clipPath><clipPath id="clip1"><rect x="296" y="31" width="103" height="103"/></clipPath><clipPath id="clip2"><rect x="296" y="31" width="103" height="104"/></clipPath><clipPath id="clip3"><rect x="296" y="31" width="103" height="104"/></clipPath></defs><g clip-path="url(#clip0)" transform="translate(-296 -30)"><g clip-path="url(#clip1)"><g clip-path="url(#clip2)"><g clip-path="url(#clip3)"><path d="M379.795 76.0625 363.594 76.0625 363.594 82.5 379.688 82.5 379.688 109.098 339.99 109.098 339.99 95.375 333.552 95.375 333.552 109.205C333.558 112.699 336.389 115.529 339.882 115.535L379.795 115.535C383.288 115.529 386.119 112.699 386.125 109.205L386.125 82.1674C386.103 78.7722 383.332 76.0377 379.937 76.0599 379.89 76.0602 379.842 76.0611 379.795 76.0625Z" fill="#FFFFFF"/><path d="M348.573 90.858 345.354 90.858C345.36 83.2213 351.537 77.0254 359.173 76.9959L359.173 80.2147C353.314 80.2442 348.579 84.999 348.573 90.858Z" fill="#FFFFFF"/><path d="M341.846 90.858 338.627 90.858C338.639 79.5155 347.831 70.3235 359.173 70.3117L359.173 73.5304C349.608 73.5422 341.858 81.2932 341.846 90.858Z" fill="#FFFFFF"/><path d="M335.161 90.858 331.943 90.858C331.96 75.8245 344.14 63.6403 359.173 63.6167L359.173 66.8354C345.915 66.8531 335.173 77.5998 335.161 90.858Z" fill="#FFFFFF"/><path d="M359.184 87.5105C359.184 89.3593 357.685 90.858 355.837 90.858 353.988 90.858 352.489 89.3593 352.489 87.5105 352.489 85.6617 353.988 84.163 355.837 84.163 357.685 84.163 359.184 85.6617 359.184 87.5105Z" fill="#FFFFFF"/><path d="M314.24 58.6705 374.323 58.6705 374.323 71.5455 380.76 71.5455 380.76 52.233 307.802 52.233 307.802 103.958 329.26 103.958 329.26 97.5208 314.24 97.5208 314.24 58.6705Z" fill="#FFFFFF"/></g></g></g></g></svg>