<svg width="127" height="127" xmlns="http://www.w3.org/2000/svg" xmlns:xlink="http://www.w3.org/1999/xlink" overflow="hidden"><defs><clipPath id="clip0"><rect x="7" y="15" width="127" height="127"/></clipPath><clipPath id="clip1"><rect x="7" y="16" width="126" height="125"/></clipPath><clipPath id="clip2"><rect x="7" y="16" width="126" height="125"/></clipPath><clipPath id="clip3"><rect x="7" y="16" width="126" height="125"/></clipPath></defs><g clip-path="url(#clip0)" transform="translate(-7 -15)"><g clip-path="url(#clip1)"><g clip-path="url(#clip2)"><g clip-path="url(#clip3)"><path d="M110.677 56.3802 118.49 56.3802 118.49 68.4896 110.677 68.4896Z" fill="#FFFFFF" transform="matrix(1.008 0 -0 1 7 16)"/><path d="M84.6354 56.3802 92.4479 56.3802 92.4479 68.4896 84.6354 68.4896Z" fill="#FFFFFF" transform="matrix(1.008 0 -0 1 7 16)"/><path d="M6.51042 56.3802 14.3229 56.3802 14.3229 68.4896 6.51042 68.4896Z" fill="#FFFFFF" transform="matrix(1.008 0 -0 1 7 16)"/><path d="M97.6562 50.3906 105.469 50.3906 105.469 74.7396 97.6562 74.7396Z" fill="#FFFFFF" transform="matrix(1.008 0 -0 1 7 16)"/><path d="M71.6146 50.3906 79.4271 50.3906 79.4271 74.7396 71.6146 74.7396Z" fill="#FFFFFF" transform="matrix(1.008 0 -0 1 7 16)"/><path d="M19.5312 50.3906 27.3438 50.3906 27.3438 74.7396 19.5312 74.7396Z" fill="#FFFFFF" transform="matrix(1.008 0 -0 1 7 16)"/><path d="M58.5938 44.2708 66.4062 44.2708 66.4062 80.7292 58.5938 80.7292Z" fill="#FFFFFF" transform="matrix(1.008 0 -0 1 7 16)"/><path d="M32.5521 38.151 40.3646 38.151 40.3646 86.7188 32.5521 86.7188Z" fill="#FFFFFF" transform="matrix(1.008 0 -0 1 7 16)"/><path d="M45.5729 26.0417 53.3854 26.0417 53.3854 98.9583 45.5729 98.9583Z" fill="#FFFFFF" transform="matrix(1.008 0 -0 1 7 16)"/></g></g></g></g></svg>