<svg width="140" height="140" xmlns="http://www.w3.org/2000/svg" xmlns:xlink="http://www.w3.org/1999/xlink" overflow="hidden"><defs><clipPath id="clip0"><rect x="291" y="-23" width="140" height="140"/></clipPath><clipPath id="clip1"><rect x="292" y="-22" width="138" height="138"/></clipPath><clipPath id="clip2"><rect x="292" y="-22" width="138" height="138"/></clipPath><clipPath id="clip3"><rect x="292" y="-22" width="138" height="138"/></clipPath></defs><g clip-path="url(#clip0)" transform="translate(-291 23)"><g clip-path="url(#clip1)"><g clip-path="url(#clip2)"><g clip-path="url(#clip3)"><path d="M412.175-5.46875 335.987 12.3563 335.987 74.025C332.25 73.1625 327.65 73.45 323.194 75.175 313.85 78.625 308.1 86.3875 310.4 92.5687 312.7 98.75 322.044 101.05 331.388 97.7438 339.869 94.725 345.331 87.9688 344.612 82.2188L344.612 22.275 403.55 8.475 403.55 60.9437C399.812 60.0812 395.212 60.3688 390.612 62.0938 381.269 65.5438 375.519 73.3063 377.819 79.4875 380.119 85.6688 389.462 87.9688 398.806 84.6625 406.569 81.7875 411.744 76.0375 412.175 70.575L412.175 70.575 412.175-5.46875Z" fill="#FFFFFF"/></g></g></g></g></svg>