<svg viewBox="0 0 96 96" xmlns="http://www.w3.org/2000/svg" xmlns:xlink="http://www.w3.org/1999/xlink" id="Icons_MusicNotes" overflow="hidden"><path d="M79.93 34.68 43.93 43.21 43.93 73C41.922 72.5999 39.8417 72.7768 37.93 73.51 33.59 75.09 30.93 78.71 31.93 81.6 32.93 84.49 37.34 85.6 41.68 83.99 45.6 82.57 47.84 78.99 47.84 76.77L47.84 47.92 75.84 41.31 75.84 66.41C73.7888 65.9968 71.6623 66.1772 69.71 66.93 65.27 68.56 62.53 72.29 63.61 75.28 64.69 78.27 69.16 79.37 73.61 77.75 77.37 76.4 79.87 73.61 80 71Z" fill="#FFFFFF"/><path d="M33.58 17.4C32.6997 16.8254 31.964 16.0555 31.43 15.15L31.43 13.31C31.43 12.2054 30.5346 11.31 29.43 11.31 28.3254 11.31 27.43 12.2054 27.43 13.31L27.43 43.5C25.4956 43.1591 23.5049 43.3491 21.67 44.05 17.33 45.62 14.67 49.24 15.67 52.14 16.67 55.04 21.09 56.14 25.43 54.53 28.43 53.43 30.65 51.34 31.36 49.19L31.36 28.1C31.6304 28.3116 31.9144 28.5053 32.21 28.68 38.88 32.68 35.21 39 38.47 39.03 42.66 39.06 42.83 23.57 33.58 17.4Z" fill="#FFFFFF"/></svg>