<svg viewBox="0 0 96 96" xmlns="http://www.w3.org/2000/svg" xmlns:xlink="http://www.w3.org/1999/xlink" id="Icons_BadgeFollow" overflow="hidden"><path d="M47.986 10C27.0108 10 10.007 27.0038 10.007 47.979 10.007 68.9542 27.0108 85.958 47.986 85.958 68.9612 85.958 85.965 68.9542 85.965 47.979 85.965 47.9777 85.965 47.9763 85.965 47.975 85.9722 27.0092 68.9818 10.0072 48.016 10 48.006 9.99999 47.996 9.99999 47.986 10ZM66.605 51.36 51.367 51.36 51.367 66.594 44.605 66.594 44.605 51.356 29.367 51.356 29.367 44.594 44.605 44.594 44.605 29.356 51.367 29.356 51.367 44.594 66.605 44.594Z" fill="#FFFFFF"/></svg>