<svg width="123" height="123" xmlns="http://www.w3.org/2000/svg" xmlns:xlink="http://www.w3.org/1999/xlink" overflow="hidden"><defs><clipPath id="clip0"><rect x="79" y="25" width="123" height="123"/></clipPath><clipPath id="clip1"><rect x="79" y="25" width="123" height="122"/></clipPath><clipPath id="clip2"><rect x="79" y="25" width="123" height="122"/></clipPath><clipPath id="clip3"><rect x="79" y="25" width="123" height="122"/></clipPath></defs><g clip-path="url(#clip0)" transform="translate(-79 -25)"><g clip-path="url(#clip1)"><g clip-path="url(#clip2)"><g clip-path="url(#clip3)"><path d="M101.667 66.0833 20.3333 66.0833 20.3333 50.8333 101.667 50.8333 101.667 66.0833ZM101.667 81.3333 55.9167 81.3333 55.9167 76.25 101.667 76.25 101.667 81.3333ZM101.667 91.5 55.9167 91.5 55.9167 86.4167 101.667 86.4167 101.667 91.5ZM101.667 101.667 55.9167 101.667 55.9167 96.5833 101.667 96.5833 101.667 101.667ZM33.0417 101.667C26.0521 101.667 20.3333 95.9479 20.3333 88.9583 20.3333 81.9688 26.0521 76.25 33.0417 76.25 40.0312 76.25 45.75 81.9688 45.75 88.9583 45.75 95.9479 40.0312 101.667 33.0417 101.667ZM106.75 40.6667 101.667 40.6667 38.125 14.6146C37.7438 12.0729 35.5833 10.1667 33.0417 10.1667 30.2458 10.1667 27.9583 12.4542 27.9583 15.25 27.9583 18.0458 30.2458 20.3333 33.0417 20.3333 34.1854 20.3333 35.3292 19.9521 36.0917 19.3167L88.1958 40.6667 15.25 40.6667C12.4542 40.6667 10.1667 42.9542 10.1667 45.75L10.1667 106.75C10.1667 109.546 12.4542 111.833 15.25 111.833L106.75 111.833C109.546 111.833 111.833 109.546 111.833 106.75L111.833 45.75C111.833 42.9542 109.546 40.6667 106.75 40.6667Z" fill="#FFFFFF" transform="matrix(1.0082 0 -0 1 79 25)"/><path d="M35.5833 88.9583C35.5833 90.3621 34.4454 91.5 33.0417 91.5 31.6379 91.5 30.5 90.3621 30.5 88.9583 30.5 87.5546 31.6379 86.4167 33.0417 86.4167 34.4454 86.4167 35.5833 87.5546 35.5833 88.9583Z" fill="#FFFFFF" transform="matrix(1.0082 0 -0 1 79 25)"/></g></g></g></g></svg>