<svg width="123" height="124" xmlns="http://www.w3.org/2000/svg" xmlns:xlink="http://www.w3.org/1999/xlink" overflow="hidden"><defs><clipPath id="clip0"><rect x="296" y="65" width="123" height="124"/></clipPath><clipPath id="clip1"><rect x="296" y="66" width="122" height="122"/></clipPath><clipPath id="clip2"><rect x="296" y="66" width="122" height="122"/></clipPath><clipPath id="clip3"><rect x="296" y="66" width="122" height="122"/></clipPath></defs><g clip-path="url(#clip0)" transform="translate(-296 -65)"><g clip-path="url(#clip1)"><g clip-path="url(#clip2)"><g clip-path="url(#clip3)"><path d="M357 142.25C348.612 142.25 341.75 135.387 341.75 127 341.75 118.613 348.612 111.75 357 111.75 365.388 111.75 372.25 118.613 372.25 127 372.25 135.387 365.388 142.25 357 142.25ZM391.312 117.469C390.55 114.673 389.406 112.004 388.008 109.59L391.185 100.058 383.942 92.8146 374.41 95.9917C371.869 94.5938 369.2 93.45 366.404 92.6875L362.083 83.7917 351.917 83.7917 347.469 92.6875C344.673 93.45 342.004 94.5938 339.59 95.9917L330.058 92.8146 322.815 100.058 325.992 109.59C324.594 112.131 323.45 114.8 322.688 117.596L313.792 121.917 313.792 132.083 322.688 136.531C323.45 139.327 324.594 141.996 325.992 144.41L322.815 153.942 330.058 161.185 339.59 158.008C342.131 159.406 344.8 160.55 347.596 161.312L352.044 170.208 362.21 170.208 366.658 161.312C369.454 160.55 372.123 159.406 374.538 158.008L384.069 161.185 391.312 153.942 388.135 144.41C389.533 141.869 390.677 139.2 391.44 136.404L400.335 131.956 400.335 121.79 391.312 117.469Z" fill="#FFFFFF"/></g></g></g></g></svg>