<svg viewBox="0 0 96 96" xmlns="http://www.w3.org/2000/svg" xmlns:xlink="http://www.w3.org/1999/xlink" id="Icons_Volume" overflow="hidden"><path d="M73.5 22 69.6 25.9C82 38.3 82 58.5 69.6 70.9L73.5 74.8C88.1 60.3 88.1 36.6 73.5 22Z" fill="#FFFFFF"/><path d="M65.6 29.8 61.7 33.7C69.8 41.8 69.8 54.9 61.7 63.1L65.6 67C75.9 56.7 75.9 40.1 65.6 29.8Z" fill="#FFFFFF"/><path d="M57.9 37.8 54 41.7C57.8 45.5 57.8 51.6 54 55.4L57.9 59.3C63.9 53.3 63.9 43.7 57.9 37.8Z" fill="#FFFFFF"/><path d="M3.5 34.6 3.5 61.4 22.9 61.4 48 82 48 14 22.9 34.6Z" fill="#FFFFFF"/></svg>