<svg width="151" height="151" xmlns="http://www.w3.org/2000/svg" xmlns:xlink="http://www.w3.org/1999/xlink" overflow="hidden"><defs><clipPath id="clip0"><rect x="45" y="-6" width="151" height="151"/></clipPath><clipPath id="clip1"><rect x="46" y="-5" width="149" height="149"/></clipPath><clipPath id="clip2"><rect x="46" y="-5" width="149" height="149"/></clipPath><clipPath id="clip3"><rect x="46" y="-5" width="149" height="149"/></clipPath></defs><g clip-path="url(#clip0)" transform="translate(-45 6)"><g clip-path="url(#clip1)"><g clip-path="url(#clip2)"><g clip-path="url(#clip3)"><path d="M154.801 26.0417 154.801 78.8125 128.726 52.7375 154.801 26.0417ZM97.374 21.3854 150.61 21.3854 124.38 48.5469 97.374 21.3854ZM95.8219 105.508 90.2344 99.9208 95.8219 87.8146 101.409 99.9208 95.8219 105.508ZM100.168 110.009 104.203 105.974 111.343 121.184 100.168 110.009ZM80.301 121.029 87.4406 105.819 91.476 109.854 80.301 121.029ZM95.8219 114.2 105.445 123.823 86.199 123.823 95.8219 114.2ZM168.925 93.0917 161.009 85.0208 161.009 24.4896 162.561 22.9375C165.2 20.299 165.2 16.2635 162.561 13.625 159.923 10.9865 155.888 10.9865 153.249 13.625L151.697 15.1771 91.1656 15.1771 84.8021 8.96875C79.9906 17.6604 77.1969 27.9042 77.1969 38.6135 77.1969 54.4448 83.0948 68.724 92.7177 79.7438L72.3854 123.513C71.7646 124.909 71.7646 126.617 72.6958 128.014 73.6271 129.41 75.024 130.186 76.576 130.186L115.223 130.186C116.775 130.186 118.327 129.41 119.103 128.014 119.879 126.617 120.034 125.065 119.414 123.513L103.272 89.0563C113.516 96.1958 125.932 100.542 139.28 100.542 149.99 100.697 160.078 97.7479 168.925 93.0917Z" fill="#FFFFFF"/></g></g></g></g></svg>